<svg width="50" height="50" viewBox="0 0 50 50" fill="none" xmlns="http://www.w3.org/2000/svg">
    <path d="M22.2023 31.5987H18.7687L20.9146 18.4105H24.3486L22.2023 31.5987ZM15.8801 18.4105L12.6067 27.4815L12.2193 25.5281L12.2197 25.5288L11.0643 19.5979C11.0643 19.5979 10.9246 18.4105 9.43557 18.4105H4.02395L3.96045 18.6338C3.96045 18.6338 5.61533 18.9781 7.55209 20.1412L10.5352 31.5991H14.1127L19.5755 18.4105H15.8801ZM42.8871 31.5987H46.0399L43.291 18.4101H40.5309C39.2563 18.4101 38.9458 19.3929 38.9458 19.3929L33.8249 31.5987H37.4042L38.12 29.6398H42.4849L42.8871 31.5987ZM39.1088 26.9336L40.9129 21.9982L41.9279 26.9336H39.1088ZM34.0934 21.5819L34.5834 18.7498C34.5834 18.7498 33.0714 18.1748 31.4952 18.1748C29.7912 18.1748 25.7449 18.9195 25.7449 22.5408C25.7449 25.9479 30.494 25.9903 30.494 27.7799C30.494 29.5696 26.2342 29.2489 24.8284 28.1203L24.3179 31.0816C24.3179 31.0816 25.8511 31.8263 28.1935 31.8263C30.5367 31.8263 34.0715 30.6131 34.0715 27.3111C34.0715 23.8821 29.2797 23.5628 29.2797 22.0719C29.2801 20.5808 32.6241 20.7723 34.0934 21.5819Z" fill="#F4F8FB"/>
    <path d="M12.2197 25.5284L11.0643 19.5975C11.0643 19.5975 10.9246 18.41 9.43557 18.41H4.02395L3.96045 18.6333C3.96045 18.6333 6.56148 19.1724 9.05633 21.192C11.4418 23.1224 12.2197 25.5284 12.2197 25.5284Z" fill="#F4F8FB"/>
    </svg>
    