<svg width="19" height="18" viewBox="0 0 19 18" fill="none" xmlns="http://www.w3.org/2000/svg">
    <g clip-path="url(#clip0_117_16707)">
    <path d="M5.75 8.25C5.75 7.85218 5.90804 7.47064 6.18934 7.18934C6.47064 6.90804 6.85218 6.75 7.25 6.75H14.75C15.1478 6.75 15.5294 6.90804 15.8107 7.18934C16.092 7.47064 16.25 7.85218 16.25 8.25V12.75C16.25 13.1478 16.092 13.5294 15.8107 13.8107C15.5294 14.092 15.1478 14.25 14.75 14.25H7.25C6.85218 14.25 6.47064 14.092 6.18934 13.8107C5.90804 13.5294 5.75 13.1478 5.75 12.75V8.25Z" stroke="url(#paint0_linear_117_16707)" stroke-width="1.5" stroke-linecap="round" stroke-linejoin="round"/>
    <path d="M9.5 10.5C9.5 10.8978 9.65804 11.2794 9.93934 11.5607C10.2206 11.842 10.6022 12 11 12C11.3978 12 11.7794 11.842 12.0607 11.5607C12.342 11.2794 12.5 10.8978 12.5 10.5C12.5 10.1022 12.342 9.72064 12.0607 9.43934C11.7794 9.15804 11.3978 9 11 9C10.6022 9 10.2206 9.15804 9.93934 9.43934C9.65804 9.72064 9.5 10.1022 9.5 10.5Z" stroke="url(#paint1_linear_117_16707)" stroke-width="1.5" stroke-linecap="round" stroke-linejoin="round"/>
    <path d="M13.25 6.75V5.25C13.25 4.85218 13.092 4.47064 12.8107 4.18934C12.5294 3.90804 12.1478 3.75 11.75 3.75H4.25C3.85218 3.75 3.47064 3.90804 3.18934 4.18934C2.90804 4.47064 2.75 4.85218 2.75 5.25V9.75C2.75 10.1478 2.90804 10.5294 3.18934 10.8107C3.47064 11.092 3.85218 11.25 4.25 11.25H5.75" stroke="url(#paint2_linear_117_16707)" stroke-width="1.5" stroke-linecap="round" stroke-linejoin="round"/>
    </g>
    <defs>
    <linearGradient id="paint0_linear_117_16707" x1="5.75" y1="10.5" x2="16.25" y2="10.5" gradientUnits="userSpaceOnUse">
    <stop offset="0.0001" stop-color="#844FC7"/>
    <stop offset="1" stop-color="#8E58FF"/>
    </linearGradient>
    <linearGradient id="paint1_linear_117_16707" x1="9.5" y1="10.5" x2="12.5" y2="10.5" gradientUnits="userSpaceOnUse">
    <stop offset="0.0001" stop-color="#844FC7"/>
    <stop offset="1" stop-color="#8E58FF"/>
    </linearGradient>
    <linearGradient id="paint2_linear_117_16707" x1="2.75" y1="7.5" x2="13.25" y2="7.5" gradientUnits="userSpaceOnUse">
    <stop offset="0.0001" stop-color="#844FC7"/>
    <stop offset="1" stop-color="#8E58FF"/>
    </linearGradient>
    <clipPath id="clip0_117_16707">
    <rect width="18" height="18" fill="white" transform="translate(0.5)"/>
    </clipPath>
    </defs>
    </svg>
    